<?xml version="1.0" encoding="UTF-8" standalone="no"?>
<!DOCTYPE svg PUBLIC "-//W3C//DTD SVG 1.1//EN"
 "http://www.w3.org/Graphics/SVG/1.1/DTD/svg11.dtd">
<!-- Generated by graphviz version 2.43.0 (0)
 -->
<!-- Title: workflow Pages: 1 -->
<svg width="489pt" height="234pt"
 viewBox="0.00 0.00 488.56 233.63" xmlns="http://www.w3.org/2000/svg" xmlns:xlink="http://www.w3.org/1999/xlink">
<g id="graph0" class="graph" transform="scale(1 1) rotate(0) translate(4 229.63)">
<title>workflow</title>
<polygon fill="white" stroke="transparent" points="-4,4 -4,-229.63 484.56,-229.63 484.56,4 -4,4"/>
<text text-anchor="start" x="179.28" y="-8.8" font-family="Times,serif" font-weight="bold" font-size="14.00">PlayerWorkflow</text>
<!-- place_shell -->
<g id="node1" class="node">
<title>place_shell</title>
<ellipse fill="lightgreen" stroke="#333333" cx="41.59" cy="-95" rx="41.68" ry="18"/>
<text text-anchor="start" x="32.09" y="-97.6" font-family="Arial" font-weight="bold" font-size="8.00">shell</text>
<text text-anchor="start" x="18.59" y="-89.6" font-family="Arial" font-style="italic" font-size="8.00">In the shell $</text>
</g>
<!-- transition_0 -->
<g id="node4" class="node">
<title>transition_0</title>
<polygon fill="none" stroke="#333333" points="191.18,-194 119.18,-194 119.18,-158 191.18,-158 191.18,-194"/>
<text text-anchor="start" x="129.18" y="-178.6" font-family="Arial" font-weight="bold" font-size="8.00">shell_prompt</text>
<text text-anchor="start" x="143.18" y="-170.6" font-family="Arial" font-style="italic" font-size="8.00">eg $ ls</text>
</g>
<!-- place_shell&#45;&gt;transition_0 -->
<!-- shell -->
<g id="edge1" class="edge">
<title>place_shell&#45;&gt;transition_0</title>
<path fill="none" stroke="#333333" d="M63.84,-110.43C81.13,-122.97 105.7,-140.81 124.86,-154.72"/>
<polygon fill="#333333" stroke="#333333" points="124.03,-156.28 129.11,-157.8 126.09,-153.45 124.03,-156.28"/>
</g>
<!-- transition_2 -->
<g id="node6" class="node">
<title>transition_2</title>
<polygon fill="none" stroke="#333333" points="191.18,-113 119.18,-113 119.18,-77 191.18,-77 191.18,-113"/>
<text text-anchor="start" x="130.68" y="-94.1" font-family="Arial" font-weight="bold" font-size="8.00">app_prompt</text>
</g>
<!-- place_shell&#45;&gt;transition_2 -->
<!-- shell -->
<g id="edge5" class="edge">
<title>place_shell&#45;&gt;transition_2</title>
<path fill="none" stroke="#333333" d="M83.19,-95C93.17,-95 103.85,-95 113.81,-95"/>
<polygon fill="#333333" stroke="#333333" points="113.95,-96.75 118.95,-95 113.95,-93.25 113.95,-96.75"/>
</g>
<!-- place_app_response -->
<g id="node2" class="node">
<title>place_app_response</title>
<ellipse fill="lightgreen" stroke="#333333" cx="285.87" cy="-95" rx="48.94" ry="18"/>
<text text-anchor="start" x="257.37" y="-97.6" font-family="Arial" font-weight="bold" font-size="8.00">app_response</text>
<text text-anchor="start" x="272.37" y="-89.6" font-family="Arial" font-style="italic" font-size="8.00">in app&gt;</text>
</g>
<!-- transition_3 -->
<g id="node7" class="node">
<title>transition_3</title>
<polygon fill="none" stroke="#333333" points="466.56,-167 394.56,-167 394.56,-131 466.56,-131 466.56,-167"/>
<text text-anchor="start" x="406.06" y="-148.1" font-family="Arial" font-weight="bold" font-size="8.00">app_prompt</text>
</g>
<!-- place_app_response&#45;&gt;transition_3 -->
<!-- app_response -->
<g id="edge7" class="edge">
<title>place_app_response&#45;&gt;transition_3</title>
<path fill="none" stroke="#333333" d="M328.14,-104.43C348.33,-111.27 372.44,-120.45 392.09,-128.8"/>
<polygon fill="#333333" stroke="#333333" points="391.7,-130.53 396.98,-130.9 393.08,-127.32 391.7,-130.53"/>
</g>
<!-- transition_4 -->
<g id="node8" class="node">
<title>transition_4</title>
<polygon fill="none" stroke="#333333" points="466.56,-113 394.56,-113 394.56,-77 466.56,-77 466.56,-113"/>
<text text-anchor="start" x="413.56" y="-94.1" font-family="Arial" font-weight="bold" font-size="8.00">respond</text>
</g>
<!-- place_app_response&#45;&gt;transition_4 -->
<!-- app_response -->
<g id="edge9" class="edge">
<title>place_app_response&#45;&gt;transition_4</title>
<path fill="none" stroke="#333333" d="M332.02,-88.67C350.22,-88.06 371.07,-88.11 388.8,-88.83"/>
<polygon fill="#333333" stroke="#333333" points="389.12,-90.6 394.2,-89.08 389.28,-87.1 389.12,-90.6"/>
</g>
<!-- transition_5 -->
<g id="node9" class="node">
<title>transition_5</title>
<polygon fill="none" stroke="#333333" points="480.56,-59 380.56,-59 380.56,-23 480.56,-23 480.56,-59"/>
<text text-anchor="start" x="388.56" y="-40.1" font-family="Arial" font-weight="bold" font-size="8.00">finish_app_response</text>
</g>
<!-- place_app_response&#45;&gt;transition_5 -->
<!-- app_response -->
<g id="edge11" class="edge">
<title>place_app_response&#45;&gt;transition_5</title>
<path fill="none" stroke="#333333" d="M320.69,-82.2C337.55,-75.82 358.33,-67.96 377.2,-60.82"/>
<polygon fill="#333333" stroke="#333333" points="377.89,-62.42 381.95,-59.02 376.66,-59.15 377.89,-62.42"/>
</g>
<!-- place_shell_response -->
<g id="node3" class="node">
<title>place_shell_response</title>
<ellipse fill="lightgreen" stroke="#333333" cx="285.87" cy="-203" rx="58.88" ry="22.76"/>
<text text-anchor="start" x="255.37" y="-209.6" font-family="Arial" font-weight="bold" font-size="8.00">shell_response</text>
<text text-anchor="start" x="252.37" y="-201.6" font-family="Arial" font-style="italic" font-size="8.00">responding to shell</text>
<text text-anchor="start" x="272.87" y="-193.6" font-family="Arial" font-style="italic" font-size="8.00">prompt</text>
</g>
<!-- transition_1 -->
<g id="node5" class="node">
<title>transition_1</title>
<polygon fill="none" stroke="#333333" points="466.56,-221 394.56,-221 394.56,-185 466.56,-185 466.56,-221"/>
<text text-anchor="start" x="404.56" y="-205.6" font-family="Arial" font-weight="bold" font-size="8.00">shell_prompt</text>
<text text-anchor="start" x="418.56" y="-197.6" font-family="Arial" font-style="italic" font-size="8.00">eg $ ls</text>
</g>
<!-- place_shell_response&#45;&gt;transition_1 -->
<!-- shell_response -->
<g id="edge3" class="edge">
<title>place_shell_response&#45;&gt;transition_1</title>
<path fill="none" stroke="#333333" d="M342.04,-196.41C357.68,-196.1 374.43,-196.24 389.03,-196.84"/>
<polygon fill="#333333" stroke="#333333" points="389.24,-198.61 394.31,-197.09 389.4,-195.11 389.24,-198.61"/>
</g>
<!-- transition_0&#45;&gt;place_shell_response -->
<g id="edge2" class="edge">
<title>transition_0&#45;&gt;place_shell_response</title>
<path fill="none" stroke="#333333" d="M191.35,-183.38C202.91,-185.8 216.07,-188.56 228.79,-191.23"/>
<polygon fill="#333333" stroke="#333333" points="228.57,-192.98 233.83,-192.29 229.29,-189.55 228.57,-192.98"/>
</g>
<!-- transition_1&#45;&gt;place_shell_response -->
<g id="edge4" class="edge">
<title>transition_1&#45;&gt;place_shell_response</title>
<path fill="none" stroke="#333333" d="M394.31,-208.91C380.15,-209.63 363.42,-209.89 347.43,-209.68"/>
<polygon fill="#333333" stroke="#333333" points="347.07,-207.92 342.04,-209.59 347.01,-211.42 347.07,-207.92"/>
</g>
<!-- transition_2&#45;&gt;place_app_response -->
<g id="edge6" class="edge">
<title>transition_2&#45;&gt;place_app_response</title>
<path fill="none" stroke="#333333" d="M191.35,-95C203.7,-95 217.87,-95 231.38,-95"/>
<polygon fill="#333333" stroke="#333333" points="231.72,-96.75 236.72,-95 231.72,-93.25 231.72,-96.75"/>
</g>
<!-- transition_3&#45;&gt;place_app_response -->
<g id="edge8" class="edge">
<title>transition_3&#45;&gt;place_app_response</title>
<path fill="none" stroke="#333333" d="M394.52,-141.64C370.89,-133.91 340.03,-122.14 317.41,-112.21"/>
<polygon fill="#333333" stroke="#333333" points="317.99,-110.55 312.71,-110.12 316.57,-113.75 317.99,-110.55"/>
</g>
<!-- transition_4&#45;&gt;place_app_response -->
<g id="edge10" class="edge">
<title>transition_4&#45;&gt;place_app_response</title>
<path fill="none" stroke="#333333" d="M394.2,-100.92C377.02,-101.79 356.08,-101.97 337.26,-101.48"/>
<polygon fill="#333333" stroke="#333333" points="337.07,-99.73 332.02,-101.33 336.97,-103.23 337.07,-99.73"/>
</g>
<!-- transition_5&#45;&gt;place_shell -->
<g id="edge12" class="edge">
<title>transition_5&#45;&gt;place_shell</title>
<path fill="none" stroke="#333333" d="M380.34,-41.47C318.65,-42.93 209.98,-48.38 119.18,-68 105.07,-71.05 89.99,-75.98 76.97,-80.8"/>
<polygon fill="#333333" stroke="#333333" points="76.34,-79.17 72.28,-82.57 77.57,-82.44 76.34,-79.17"/>
</g>
</g>
</svg>
