<?xml version="1.0" encoding="UTF-8" standalone="no"?>
<!DOCTYPE svg PUBLIC "-//W3C//DTD SVG 1.1//EN"
 "http://www.w3.org/Graphics/SVG/1.1/DTD/svg11.dtd">
<!-- Generated by graphviz version 2.43.0 (0)
 -->
<!-- Title: workflow Pages: 1 -->
<svg width="620pt" height="95pt"
 viewBox="0.00 0.00 620.00 95.00" xmlns="http://www.w3.org/2000/svg" xmlns:xlink="http://www.w3.org/1999/xlink">
<g id="graph0" class="graph" transform="scale(1 1) rotate(0) translate(4 91)">
<title>workflow</title>
<polygon fill="white" stroke="transparent" points="-4,4 -4,-91 616,-91 616,4 -4,4"/>
<text text-anchor="start" x="249" y="-8.8" font-family="Times,serif" font-weight="bold" font-size="14.00">ShowWorkflow</text>
<!-- place_shell -->
<g id="node1" class="node">
<title>place_shell</title>
<ellipse fill="lightgreen" stroke="#333333" cx="36" cy="-46" rx="36" ry="18"/>
<text text-anchor="start" x="26.5" y="-45.1" font-family="Arial" font-weight="bold" font-size="8.00">shell</text>
</g>
<!-- transition_0 -->
<g id="node4" class="node">
<title>transition_0</title>
<polygon fill="none" stroke="#333333" points="180,-87 108,-87 108,-51 180,-51 180,-87"/>
<text text-anchor="start" x="129.5" y="-68.1" font-family="Arial" font-weight="bold" font-size="8.00">prompt</text>
</g>
<!-- place_shell&#45;&gt;transition_0 -->
<!-- shell -->
<g id="edge1" class="edge">
<title>place_shell&#45;&gt;transition_0</title>
<path fill="none" stroke="#333333" d="M69.38,-53.03C79.94,-55.32 91.79,-57.89 102.85,-60.29"/>
<polygon fill="#333333" stroke="#333333" points="102.61,-62.03 107.87,-61.38 103.35,-58.61 102.61,-62.03"/>
</g>
<!-- place_prompt -->
<g id="node2" class="node">
<title>place_prompt</title>
<ellipse fill="lightgreen" stroke="#333333" cx="252" cy="-69" rx="36" ry="18"/>
<text text-anchor="start" x="237.5" y="-68.1" font-family="Arial" font-weight="bold" font-size="8.00">prompt</text>
</g>
<!-- transition_1 -->
<g id="node5" class="node">
<title>transition_1</title>
<polygon fill="none" stroke="#333333" points="396,-87 324,-87 324,-51 396,-51 396,-87"/>
<text text-anchor="start" x="343" y="-68.1" font-family="Arial" font-weight="bold" font-size="8.00">respond</text>
</g>
<!-- place_prompt&#45;&gt;transition_1 -->
<!-- prompt -->
<g id="edge3" class="edge">
<title>place_prompt&#45;&gt;transition_1</title>
<path fill="none" stroke="#333333" d="M288,-69C297.76,-69 308.44,-69 318.49,-69"/>
<polygon fill="#333333" stroke="#333333" points="318.67,-70.75 323.67,-69 318.67,-67.25 318.67,-70.75"/>
</g>
<!-- place_response -->
<g id="node3" class="node">
<title>place_response</title>
<ellipse fill="lightgreen" stroke="#333333" cx="468" cy="-69" rx="36" ry="18"/>
<text text-anchor="start" x="449.5" y="-68.1" font-family="Arial" font-weight="bold" font-size="8.00">response</text>
</g>
<!-- transition_2 -->
<g id="node6" class="node">
<title>transition_2</title>
<polygon fill="none" stroke="#333333" points="612,-64 540,-64 540,-28 612,-28 612,-64"/>
<text text-anchor="start" x="556.5" y="-45.1" font-family="Arial" font-weight="bold" font-size="8.00">command</text>
</g>
<!-- place_response&#45;&gt;transition_2 -->
<!-- response -->
<g id="edge5" class="edge">
<title>place_response&#45;&gt;transition_2</title>
<path fill="none" stroke="#333333" d="M501.38,-61.97C511.94,-59.68 523.79,-57.11 534.85,-54.71"/>
<polygon fill="#333333" stroke="#333333" points="535.35,-56.39 539.87,-53.62 534.61,-52.97 535.35,-56.39"/>
</g>
<!-- transition_0&#45;&gt;place_prompt -->
<g id="edge2" class="edge">
<title>transition_0&#45;&gt;place_prompt</title>
<path fill="none" stroke="#333333" d="M180,-69C189.76,-69 200.44,-69 210.49,-69"/>
<polygon fill="#333333" stroke="#333333" points="210.67,-70.75 215.67,-69 210.67,-67.25 210.67,-70.75"/>
</g>
<!-- transition_1&#45;&gt;place_response -->
<g id="edge4" class="edge">
<title>transition_1&#45;&gt;place_response</title>
<path fill="none" stroke="#333333" d="M396,-69C405.76,-69 416.44,-69 426.49,-69"/>
<polygon fill="#333333" stroke="#333333" points="426.67,-70.75 431.67,-69 426.67,-67.25 426.67,-70.75"/>
</g>
<!-- transition_2&#45;&gt;place_shell -->
<g id="edge6" class="edge">
<title>transition_2&#45;&gt;place_shell</title>
<path fill="none" stroke="#333333" d="M539.91,-39.9C497.62,-33.08 424.34,-23 361,-23 251,-23 251,-23 251,-23 189.24,-23 118.02,-32.59 75.31,-39.38"/>
<polygon fill="#333333" stroke="#333333" points="74.9,-37.67 70.24,-40.2 75.46,-41.13 74.9,-37.67"/>
</g>
</g>
</svg>
